<svg xmlns="http://www.w3.org/2000/svg" xmlns:xlink="http://www.w3.org/1999/xlink" width="250" zoomAndPan="magnify" viewBox="0 0 187.5 187.499992" height="250" preserveAspectRatio="xMidYMid meet" version="1.0"><defs><g/><clipPath id="ff4f068f62"><path d="M 68 36.597656 L 118 36.597656 L 118 99 L 68 99 Z M 68 36.597656 " clip-rule="nonzero"/></clipPath><clipPath id="4423abfd08"><path d="M 52 52 L 135.246094 52 L 135.246094 117.597656 L 52 117.597656 Z M 52 52 " clip-rule="nonzero"/></clipPath></defs><g clip-path="url(#ff4f068f62)"><path fill="#1089b8" d="M 117.632812 77.796875 C 112.355469 62.640625 99.839844 45.0625 94.226562 36.613281 C 87.015625 47.46875 68.398438 73.410156 68.398438 89.90625 L 68.398438 91.558594 C 68.398438 93.601562 68.652344 95.597656 69.113281 97.523438 C 69.894531 97.6875 70.671875 97.808594 71.4375 97.898438 C 69.824219 91.226562 70.921875 83.257812 74.742188 73.988281 C 72.351562 83.289062 71.574219 91.289062 72.394531 97.992188 C 72.882812 98.035156 73.359375 98.0625 73.820312 98.078125 C 82.21875 98.394531 91.332031 95.671875 98.824219 92.003906 C 105.644531 88.667969 112.675781 83.792969 117.625 77.785156 Z M 117.632812 77.796875 " fill-opacity="1" fill-rule="evenodd"/></g><g clip-path="url(#4423abfd08)"><path fill="#00afef" d="M 120.046875 91.140625 C 119.796875 91.347656 119.539062 91.558594 119.28125 91.765625 C 119.539062 91.558594 119.796875 91.347656 120.046875 91.140625 Z M 119.253906 91.796875 C 118.996094 92.003906 118.730469 92.210938 118.46875 92.421875 C 118.730469 92.210938 118.996094 92.003906 119.253906 91.796875 Z M 118.453125 92.429688 C 118.1875 92.636719 117.917969 92.847656 117.644531 93.054688 C 117.917969 92.847656 118.1875 92.636719 118.453125 92.429688 Z M 117.632812 93.0625 C 117.359375 93.273438 117.085938 93.472656 116.808594 93.683594 C 117.085938 93.480469 117.359375 93.273438 117.632812 93.0625 Z M 116.789062 93.695312 C 116.515625 93.898438 116.238281 94.101562 115.957031 94.300781 C 116.238281 94.101562 116.515625 93.898438 116.789062 93.695312 Z M 115.945312 94.316406 C 115.664062 94.519531 115.378906 94.71875 115.101562 94.921875 C 115.386719 94.71875 115.664062 94.519531 115.945312 94.316406 Z M 115.058594 94.941406 C 114.484375 95.347656 113.898438 95.742188 113.304688 96.132812 C 113.898438 95.742188 114.484375 95.339844 115.058594 94.941406 Z M 113.304688 96.132812 L 113.277344 96.152344 C 112.976562 96.347656 112.683594 96.542969 112.378906 96.738281 C 112.078125 96.929688 111.777344 97.117188 111.46875 97.3125 C 111.777344 97.125 112.078125 96.929688 112.378906 96.738281 Z M 111.425781 97.34375 C 111.117188 97.527344 110.820312 97.722656 110.503906 97.902344 C 110.8125 97.714844 111.117188 97.527344 111.425781 97.34375 Z M 110.496094 97.910156 C 110.191406 98.097656 109.875 98.285156 109.5625 98.472656 C 109.875 98.285156 110.191406 98.097656 110.496094 97.910156 Z M 109.53125 98.488281 C 109.21875 98.675781 108.902344 98.855469 108.582031 99.042969 C 108.902344 98.863281 109.21875 98.675781 109.53125 98.488281 Z M 108.558594 99.050781 C 108.238281 99.230469 107.917969 99.410156 107.59375 99.589844 C 107.917969 99.410156 108.238281 99.230469 108.558594 99.050781 Z M 107.582031 99.605469 C 107.25 99.785156 106.929688 99.964844 106.59375 100.144531 C 106.921875 99.964844 107.25 99.792969 107.582031 99.605469 Z M 106.578125 100.152344 C 106.257812 100.324219 105.929688 100.496094 105.601562 100.671875 C 105.929688 100.496094 106.257812 100.324219 106.578125 100.152344 Z M 105.566406 100.691406 C 105.234375 100.863281 104.90625 101.03125 104.578125 101.195312 C 104.90625 101.03125 105.242188 100.859375 105.566406 100.691406 Z M 104.527344 101.226562 C 104.191406 101.398438 103.855469 101.5625 103.511719 101.730469 C 103.175781 101.894531 102.839844 102.054688 102.503906 102.210938 C 102.839844 102.054688 103.175781 101.886719 103.511719 101.730469 C 103.855469 101.5625 104.191406 101.398438 104.527344 101.226562 Z M 102.414062 102.253906 C 102.097656 102.40625 101.78125 102.550781 101.46875 102.695312 C 101.78125 102.550781 102.097656 102.40625 102.414062 102.253906 Z M 101.375 102.738281 C 101.046875 102.890625 100.71875 103.03125 100.390625 103.175781 C 100.71875 103.03125 101.046875 102.882812 101.375 102.738281 Z M 100.359375 103.191406 C 100.023438 103.34375 99.6875 103.488281 99.34375 103.632812 C 99.679688 103.488281 100.015625 103.34375 100.359375 103.191406 Z M 99.289062 103.660156 C 98.964844 103.796875 98.652344 103.925781 98.332031 104.0625 C 98.652344 103.933594 98.964844 103.796875 99.289062 103.660156 Z M 98.238281 104.097656 C 97.914062 104.230469 97.601562 104.359375 97.28125 104.488281 C 97.601562 104.359375 97.914062 104.230469 98.238281 104.097656 Z M 97.222656 104.511719 C 96.894531 104.640625 96.558594 104.769531 96.230469 104.898438 C 96.558594 104.769531 96.894531 104.640625 97.222656 104.511719 Z M 96.15625 104.921875 C 95.84375 105.042969 95.527344 105.15625 95.214844 105.273438 C 95.527344 105.15625 95.84375 105.042969 96.15625 104.921875 Z M 95.113281 105.308594 C 94.800781 105.425781 94.492188 105.53125 94.175781 105.648438 C 94.484375 105.539062 94.800781 105.425781 95.113281 105.308594 Z M 94.097656 105.675781 C 93.769531 105.792969 93.441406 105.90625 93.113281 106.015625 C 93.441406 105.90625 93.769531 105.792969 94.097656 105.675781 Z M 93.070312 106.03125 C 92.753906 106.136719 92.433594 106.238281 92.117188 106.347656 C 92.433594 106.246094 92.753906 106.136719 93.070312 106.03125 Z M 92.011719 106.375 C 91.703125 106.476562 91.398438 106.570312 91.089844 106.664062 C 91.398438 106.570312 91.703125 106.46875 92.011719 106.375 Z M 91.023438 106.683594 C 90.695312 106.785156 90.375 106.886719 90.046875 106.980469 C 90.375 106.886719 90.695312 106.785156 91.023438 106.683594 Z M 90.015625 106.988281 C 89.703125 107.082031 89.386719 107.167969 89.066406 107.261719 C 89.378906 107.175781 89.695312 107.082031 90.015625 106.988281 Z M 88.953125 107.289062 C 88.652344 107.371094 88.359375 107.457031 88.058594 107.527344 C 88.351562 107.449219 88.652344 107.371094 88.953125 107.289062 Z M 87.964844 107.558594 C 87.652344 107.636719 87.34375 107.714844 87.035156 107.792969 C 87.34375 107.714844 87.65625 107.636719 87.964844 107.558594 Z M 86.992188 107.808594 C 86.679688 107.886719 86.363281 107.960938 86.042969 108.039062 C 86.355469 107.96875 86.671875 107.886719 86.992188 107.808594 Z M 85.957031 108.0625 C 85.65625 108.132812 85.355469 108.199219 85.054688 108.261719 C 85.355469 108.199219 85.65625 108.132812 85.957031 108.0625 Z M 84.976562 108.285156 C 84.667969 108.347656 84.371094 108.414062 84.0625 108.480469 C 84.363281 108.414062 84.667969 108.355469 84.976562 108.285156 Z M 84.011719 108.488281 C 83.699219 108.550781 83.390625 108.609375 83.082031 108.667969 C 83.390625 108.609375 83.703125 108.550781 84.011719 108.488281 Z M 83.003906 108.679688 C 82.710938 108.738281 82.425781 108.789062 82.140625 108.839844 C 82.425781 108.789062 82.71875 108.738281 83.003906 108.679688 Z M 82.03125 108.855469 C 81.738281 108.902344 81.4375 108.953125 81.144531 108.996094 C 81.4375 108.953125 81.730469 108.902344 82.03125 108.855469 Z M 81.101562 109.003906 C 80.796875 109.054688 80.496094 109.097656 80.1875 109.140625 C 80.488281 109.097656 80.796875 109.054688 81.101562 109.003906 Z M 80.125 109.148438 C 79.835938 109.191406 79.550781 109.226562 79.273438 109.265625 C 79.558594 109.226562 79.835938 109.191406 80.125 109.148438 Z M 79.171875 109.273438 C 78.886719 109.308594 78.609375 109.34375 78.320312 109.371094 C 78.601562 109.34375 78.886719 109.308594 79.171875 109.273438 Z M 78.265625 109.378906 C 77.964844 109.414062 77.671875 109.445312 77.371094 109.464844 C 77.664062 109.4375 77.964844 109.410156 78.265625 109.378906 Z M 77.335938 109.472656 C 77.050781 109.503906 76.765625 109.523438 76.476562 109.546875 C 76.765625 109.523438 77.050781 109.503906 77.335938 109.472656 Z M 76.40625 109.550781 C 76.207031 109.566406 76.007812 109.582031 75.8125 109.597656 C 78 111.859375 80.582031 113.738281 83.425781 115.105469 C 86.734375 116.699219 90.410156 117.59375 94.234375 117.59375 C 98.671875 117.59375 102.898438 116.390625 106.601562 114.300781 C 114.550781 109.804688 120.0625 101.195312 120.0625 91.5625 L 120.0625 91.140625 C 132.011719 81.199219 137.984375 69.585938 134.058594 61.429688 C 131.207031 55.5 123.679688 52.578125 113.949219 52.699219 C 119.230469 53.746094 123.234375 56.222656 125.101562 60.089844 C 129.90625 70.0625 118.703125 85.527344 100.101562 94.617188 C 81.496094 103.71875 62.515625 103.003906 57.714844 93.035156 C 55.847656 89.164062 56.398438 84.46875 58.851562 79.636719 C 52.730469 87.257812 50.351562 95.023438 53.210938 100.949219 C 56.363281 107.5 65.203125 110.382812 76.414062 109.546875 Z M 76.40625 109.550781 " fill-opacity="1" fill-rule="evenodd"/></g><path fill="#1089b8" d="M 75.804688 109.597656 C 94.707031 108.746094 109.410156 103.585938 119.925781 94.128906 C 120.011719 93.285156 120.054688 92.429688 120.054688 91.5625 L 120.054688 91.140625 C 115.378906 95.03125 109.78125 98.660156 103.507812 101.730469 C 93.839844 106.453125 84.140625 109.070312 75.804688 109.597656 Z M 75.804688 109.597656 " fill-opacity="1" fill-rule="evenodd"/><g fill="#ffffff" fill-opacity="1"><g transform="translate(44.996501, 141.239054)"><g><path d="M 12.46875 0 C 12.238281 0 12.082031 -0.113281 12 -0.34375 L 11.3125 -2.609375 C 11.300781 -2.691406 11.253906 -2.734375 11.171875 -2.734375 L 5.1875 -2.734375 C 5.113281 -2.734375 5.066406 -2.691406 5.046875 -2.609375 L 4.359375 -0.34375 C 4.285156 -0.113281 4.132812 0 3.90625 0 L 1.078125 0 C 0.929688 0 0.820312 -0.0390625 0.75 -0.125 C 0.6875 -0.21875 0.679688 -0.332031 0.734375 -0.46875 L 5.921875 -16.734375 C 6.003906 -16.960938 6.160156 -17.078125 6.390625 -17.078125 L 9.96875 -17.078125 C 10.195312 -17.078125 10.351562 -16.960938 10.4375 -16.734375 L 15.640625 -0.46875 C 15.648438 -0.4375 15.65625 -0.382812 15.65625 -0.3125 C 15.65625 -0.21875 15.625 -0.140625 15.5625 -0.078125 C 15.5 -0.0234375 15.410156 0 15.296875 0 Z M 5.90625 -5.5625 C 5.882812 -5.445312 5.925781 -5.390625 6.03125 -5.390625 L 10.34375 -5.390625 C 10.4375 -5.390625 10.476562 -5.445312 10.46875 -5.5625 L 8.265625 -13 C 8.253906 -13.0625 8.226562 -13.09375 8.1875 -13.09375 C 8.144531 -13.09375 8.109375 -13.0625 8.078125 -13 Z M 5.90625 -5.5625 "/></g></g></g><g fill="#ffffff" fill-opacity="1"><g transform="translate(61.35974, 141.239054)"><g><path d="M 8.46875 -10.1875 C 8.46875 -9.914062 8.328125 -9.78125 8.046875 -9.78125 L 5.859375 -9.78125 C 5.753906 -9.78125 5.703125 -9.734375 5.703125 -9.640625 L 5.703125 -4.578125 C 5.703125 -4.046875 5.8125 -3.65625 6.03125 -3.40625 C 6.25 -3.15625 6.601562 -3.03125 7.09375 -3.03125 L 7.78125 -3.03125 C 8.050781 -3.03125 8.1875 -2.890625 8.1875 -2.609375 L 8.1875 -0.515625 C 8.1875 -0.253906 8.050781 -0.109375 7.78125 -0.078125 C 7.164062 -0.046875 6.71875 -0.03125 6.4375 -0.03125 C 5.09375 -0.03125 4.085938 -0.253906 3.421875 -0.703125 C 2.753906 -1.160156 2.410156 -2.007812 2.390625 -3.25 L 2.390625 -9.640625 C 2.390625 -9.734375 2.34375 -9.78125 2.25 -9.78125 L 1 -9.78125 C 0.71875 -9.78125 0.578125 -9.914062 0.578125 -10.1875 L 0.578125 -12.125 C 0.578125 -12.394531 0.71875 -12.53125 1 -12.53125 L 2.25 -12.53125 C 2.34375 -12.53125 2.390625 -12.582031 2.390625 -12.6875 L 2.390625 -15.4375 C 2.390625 -15.71875 2.53125 -15.859375 2.8125 -15.859375 L 5.296875 -15.859375 C 5.566406 -15.859375 5.703125 -15.71875 5.703125 -15.4375 L 5.703125 -12.6875 C 5.703125 -12.582031 5.753906 -12.53125 5.859375 -12.53125 L 8.046875 -12.53125 C 8.328125 -12.53125 8.46875 -12.394531 8.46875 -12.125 Z M 8.46875 -10.1875 "/></g></g></g><g fill="#ffffff" fill-opacity="1"><g transform="translate(70.626555, 141.239054)"><g><path d="M 1.6875 0 C 1.40625 0 1.265625 -0.140625 1.265625 -0.421875 L 1.265625 -16.65625 C 1.265625 -16.9375 1.40625 -17.078125 1.6875 -17.078125 L 4.296875 -17.078125 C 4.566406 -17.078125 4.703125 -16.9375 4.703125 -16.65625 L 4.703125 -8.609375 C 4.703125 -8.546875 4.722656 -8.507812 4.765625 -8.5 C 4.804688 -8.488281 4.84375 -8.507812 4.875 -8.5625 L 8.125 -12.296875 C 8.28125 -12.453125 8.453125 -12.53125 8.640625 -12.53125 L 11.578125 -12.53125 C 11.691406 -12.53125 11.78125 -12.507812 11.84375 -12.46875 C 11.914062 -12.4375 11.953125 -12.378906 11.953125 -12.296875 C 11.953125 -12.191406 11.921875 -12.101562 11.859375 -12.03125 L 8.859375 -8.265625 C 8.804688 -8.210938 8.796875 -8.148438 8.828125 -8.078125 L 12.421875 -0.484375 L 12.46875 -0.296875 C 12.46875 -0.0976562 12.34375 0 12.09375 0 L 9.34375 0 C 9.113281 0 8.953125 -0.101562 8.859375 -0.3125 L 6.484375 -5.90625 C 6.441406 -6 6.378906 -6.003906 6.296875 -5.921875 L 4.78125 -4 C 4.726562 -3.9375 4.703125 -3.878906 4.703125 -3.828125 L 4.703125 -0.421875 C 4.703125 -0.140625 4.566406 0 4.296875 0 Z M 1.6875 0 "/></g></g></g><g fill="#ffffff" fill-opacity="1"><g transform="translate(83.62448, 141.239054)"><g><path d="M 3.171875 -13.734375 C 2.554688 -13.734375 2.050781 -13.921875 1.65625 -14.296875 C 1.269531 -14.679688 1.078125 -15.175781 1.078125 -15.78125 C 1.078125 -16.382812 1.269531 -16.875 1.65625 -17.25 C 2.050781 -17.632812 2.554688 -17.828125 3.171875 -17.828125 C 3.804688 -17.828125 4.3125 -17.640625 4.6875 -17.265625 C 5.070312 -16.890625 5.265625 -16.394531 5.265625 -15.78125 C 5.265625 -15.164062 5.070312 -14.671875 4.6875 -14.296875 C 4.3125 -13.921875 3.804688 -13.734375 3.171875 -13.734375 Z M 1.875 0 C 1.601562 0 1.46875 -0.140625 1.46875 -0.421875 L 1.46875 -12.125 C 1.46875 -12.394531 1.601562 -12.53125 1.875 -12.53125 L 4.484375 -12.53125 C 4.765625 -12.53125 4.90625 -12.394531 4.90625 -12.125 L 4.90625 -0.421875 C 4.90625 -0.140625 4.765625 0 4.484375 0 Z M 1.875 0 "/></g></g></g><g fill="#ffffff" fill-opacity="1"><g transform="translate(89.964934, 141.239054)"><g><path d="M 7.8125 -12.734375 C 9.101562 -12.734375 10.144531 -12.332031 10.9375 -11.53125 C 11.738281 -10.738281 12.140625 -9.660156 12.140625 -8.296875 L 12.140625 -0.421875 C 12.140625 -0.140625 12.003906 0 11.734375 0 L 9.125 0 C 8.84375 0 8.703125 -0.140625 8.703125 -0.421875 L 8.703125 -7.578125 C 8.703125 -8.234375 8.523438 -8.765625 8.171875 -9.171875 C 7.816406 -9.578125 7.335938 -9.78125 6.734375 -9.78125 C 6.128906 -9.78125 5.640625 -9.578125 5.265625 -9.171875 C 4.890625 -8.765625 4.703125 -8.234375 4.703125 -7.578125 L 4.703125 -0.421875 C 4.703125 -0.140625 4.566406 0 4.296875 0 L 1.6875 0 C 1.40625 0 1.265625 -0.140625 1.265625 -0.421875 L 1.265625 -12.125 C 1.265625 -12.394531 1.40625 -12.53125 1.6875 -12.53125 L 4.296875 -12.53125 C 4.566406 -12.53125 4.703125 -12.394531 4.703125 -12.125 L 4.703125 -11.4375 C 4.703125 -11.375 4.71875 -11.332031 4.75 -11.3125 C 4.789062 -11.300781 4.828125 -11.316406 4.859375 -11.359375 C 5.523438 -12.273438 6.507812 -12.734375 7.8125 -12.734375 Z M 7.8125 -12.734375 "/></g></g></g><g fill="#ffffff" fill-opacity="1"><g transform="translate(103.304262, 141.239054)"><g><path d="M 6.265625 0.171875 C 5.179688 0.171875 4.226562 0.0195312 3.40625 -0.28125 C 2.59375 -0.59375 1.96875 -1.023438 1.53125 -1.578125 C 1.09375 -2.140625 0.875 -2.769531 0.875 -3.46875 L 0.875 -3.578125 C 0.875 -3.859375 1.015625 -4 1.296875 -4 L 3.75 -4 C 4.03125 -4 4.171875 -3.953125 4.171875 -3.859375 L 4.171875 -3.6875 C 4.171875 -3.320312 4.363281 -3.015625 4.75 -2.765625 C 5.144531 -2.515625 5.644531 -2.390625 6.25 -2.390625 C 6.800781 -2.390625 7.242188 -2.492188 7.578125 -2.703125 C 7.921875 -2.921875 8.09375 -3.195312 8.09375 -3.53125 C 8.09375 -3.820312 7.945312 -4.039062 7.65625 -4.1875 C 7.363281 -4.34375 6.882812 -4.5 6.21875 -4.65625 C 5.425781 -4.863281 4.832031 -5.050781 4.4375 -5.21875 C 3.382812 -5.570312 2.546875 -6.007812 1.921875 -6.53125 C 1.304688 -7.050781 1 -7.800781 1 -8.78125 C 1 -9.976562 1.46875 -10.929688 2.40625 -11.640625 C 3.351562 -12.347656 4.59375 -12.703125 6.125 -12.703125 C 7.164062 -12.703125 8.078125 -12.535156 8.859375 -12.203125 C 9.648438 -11.867188 10.257812 -11.398438 10.6875 -10.796875 C 11.125 -10.203125 11.34375 -9.519531 11.34375 -8.75 C 11.34375 -8.675781 11.304688 -8.609375 11.234375 -8.546875 C 11.160156 -8.492188 11.054688 -8.46875 10.921875 -8.46875 L 8.53125 -8.46875 C 8.257812 -8.46875 8.125 -8.515625 8.125 -8.609375 L 8.125 -8.75 C 8.125 -9.113281 7.941406 -9.414062 7.578125 -9.65625 C 7.222656 -9.90625 6.742188 -10.03125 6.140625 -10.03125 C 5.609375 -10.03125 5.164062 -9.929688 4.8125 -9.734375 C 4.46875 -9.535156 4.296875 -9.265625 4.296875 -8.921875 C 4.296875 -8.597656 4.460938 -8.351562 4.796875 -8.1875 C 5.128906 -8.03125 5.675781 -7.863281 6.4375 -7.6875 C 6.90625 -7.582031 7.363281 -7.457031 7.8125 -7.3125 C 8.976562 -6.976562 9.894531 -6.539062 10.5625 -6 C 11.226562 -5.457031 11.5625 -4.675781 11.5625 -3.65625 C 11.5625 -2.457031 11.082031 -1.519531 10.125 -0.84375 C 9.164062 -0.164062 7.878906 0.171875 6.265625 0.171875 Z M 6.265625 0.171875 "/></g></g></g><g fill="#ffffff" fill-opacity="1"><g transform="translate(115.570595, 141.239054)"><g><path d="M 6.828125 0.1875 C 5.441406 0.1875 4.257812 -0.164062 3.28125 -0.875 C 2.3125 -1.59375 1.648438 -2.570312 1.296875 -3.8125 C 1.066406 -4.570312 0.953125 -5.398438 0.953125 -6.296875 C 0.953125 -7.285156 1.070312 -8.144531 1.3125 -8.875 C 1.6875 -10.082031 2.359375 -11.023438 3.328125 -11.703125 C 4.296875 -12.390625 5.472656 -12.734375 6.859375 -12.734375 C 8.191406 -12.734375 9.332031 -12.390625 10.28125 -11.703125 C 11.226562 -11.023438 11.890625 -10.09375 12.265625 -8.90625 C 12.515625 -8.15625 12.640625 -7.300781 12.640625 -6.34375 C 12.640625 -5.5 12.53125 -4.675781 12.3125 -3.875 C 11.9375 -2.601562 11.265625 -1.609375 10.296875 -0.890625 C 9.335938 -0.171875 8.179688 0.1875 6.828125 0.1875 Z M 6.828125 -2.75 C 7.347656 -2.75 7.796875 -2.910156 8.171875 -3.234375 C 8.546875 -3.566406 8.8125 -4.015625 8.96875 -4.578125 C 9.101562 -5.023438 9.171875 -5.597656 9.171875 -6.296875 C 9.171875 -6.972656 9.101562 -7.550781 8.96875 -8.03125 C 8.8125 -8.582031 8.546875 -9.007812 8.171875 -9.3125 C 7.796875 -9.625 7.332031 -9.78125 6.78125 -9.78125 C 6.238281 -9.78125 5.78125 -9.625 5.40625 -9.3125 C 5.039062 -9.007812 4.773438 -8.582031 4.609375 -8.03125 C 4.484375 -7.550781 4.421875 -6.972656 4.421875 -6.296875 C 4.421875 -5.628906 4.484375 -5.054688 4.609375 -4.578125 C 4.773438 -4.015625 5.046875 -3.566406 5.421875 -3.234375 C 5.804688 -2.910156 6.273438 -2.75 6.828125 -2.75 Z M 6.828125 -2.75 "/></g></g></g><g fill="#ffffff" fill-opacity="1"><g transform="translate(129.153793, 141.239054)"><g><path d="M 7.8125 -12.734375 C 9.101562 -12.734375 10.144531 -12.332031 10.9375 -11.53125 C 11.738281 -10.738281 12.140625 -9.660156 12.140625 -8.296875 L 12.140625 -0.421875 C 12.140625 -0.140625 12.003906 0 11.734375 0 L 9.125 0 C 8.84375 0 8.703125 -0.140625 8.703125 -0.421875 L 8.703125 -7.578125 C 8.703125 -8.234375 8.523438 -8.765625 8.171875 -9.171875 C 7.816406 -9.578125 7.335938 -9.78125 6.734375 -9.78125 C 6.128906 -9.78125 5.640625 -9.578125 5.265625 -9.171875 C 4.890625 -8.765625 4.703125 -8.234375 4.703125 -7.578125 L 4.703125 -0.421875 C 4.703125 -0.140625 4.566406 0 4.296875 0 L 1.6875 0 C 1.40625 0 1.265625 -0.140625 1.265625 -0.421875 L 1.265625 -12.125 C 1.265625 -12.394531 1.40625 -12.53125 1.6875 -12.53125 L 4.296875 -12.53125 C 4.566406 -12.53125 4.703125 -12.394531 4.703125 -12.125 L 4.703125 -11.4375 C 4.703125 -11.375 4.71875 -11.332031 4.75 -11.3125 C 4.789062 -11.300781 4.828125 -11.316406 4.859375 -11.359375 C 5.523438 -12.273438 6.507812 -12.734375 7.8125 -12.734375 Z M 7.8125 -12.734375 "/></g></g></g><g fill="#ffffff" fill-opacity="1"><g transform="translate(68.226519, 152.30145)"><g><path d="M 2.421875 -4.78125 C 2.703125 -4.78125 2.953125 -4.722656 3.171875 -4.609375 C 3.390625 -4.492188 3.554688 -4.328125 3.671875 -4.109375 C 3.796875 -3.890625 3.859375 -3.640625 3.859375 -3.359375 C 3.859375 -3.078125 3.796875 -2.828125 3.671875 -2.609375 C 3.554688 -2.398438 3.382812 -2.238281 3.15625 -2.125 C 2.925781 -2.007812 2.664062 -1.953125 2.375 -1.953125 L 1.296875 -1.953125 C 1.265625 -1.953125 1.25 -1.9375 1.25 -1.90625 L 1.25 -0.109375 C 1.25 -0.0351562 1.210938 0 1.140625 0 L 0.5625 0 C 0.488281 0 0.453125 -0.0351562 0.453125 -0.109375 L 0.453125 -4.671875 C 0.453125 -4.742188 0.488281 -4.78125 0.5625 -4.78125 Z M 2.296875 -2.59375 C 2.535156 -2.59375 2.722656 -2.660156 2.859375 -2.796875 C 3.003906 -2.929688 3.078125 -3.113281 3.078125 -3.34375 C 3.078125 -3.570312 3.003906 -3.753906 2.859375 -3.890625 C 2.722656 -4.035156 2.535156 -4.109375 2.296875 -4.109375 L 1.296875 -4.109375 C 1.265625 -4.109375 1.25 -4.09375 1.25 -4.0625 L 1.25 -2.640625 C 1.25 -2.609375 1.265625 -2.59375 1.296875 -2.59375 Z M 2.296875 -2.59375 "/></g></g></g><g fill="#ffffff" fill-opacity="1"><g transform="translate(73.71979, 152.30145)"><g><path d="M 2.109375 0.0625 C 1.773438 0.0625 1.472656 -0.00390625 1.203125 -0.140625 C 0.941406 -0.273438 0.738281 -0.46875 0.59375 -0.71875 C 0.445312 -0.976562 0.375 -1.273438 0.375 -1.609375 L 0.375 -3.171875 C 0.375 -3.492188 0.445312 -3.78125 0.59375 -4.03125 C 0.738281 -4.289062 0.941406 -4.488281 1.203125 -4.625 C 1.472656 -4.757812 1.773438 -4.828125 2.109375 -4.828125 C 2.460938 -4.828125 2.769531 -4.757812 3.03125 -4.625 C 3.289062 -4.488281 3.492188 -4.289062 3.640625 -4.03125 C 3.785156 -3.78125 3.859375 -3.492188 3.859375 -3.171875 L 3.859375 -1.609375 C 3.859375 -1.273438 3.785156 -0.976562 3.640625 -0.71875 C 3.492188 -0.46875 3.289062 -0.273438 3.03125 -0.140625 C 2.769531 -0.00390625 2.460938 0.0625 2.109375 0.0625 Z M 2.109375 -0.609375 C 2.398438 -0.609375 2.628906 -0.695312 2.796875 -0.875 C 2.972656 -1.050781 3.0625 -1.285156 3.0625 -1.578125 L 3.0625 -3.171875 C 3.0625 -3.472656 2.972656 -3.710938 2.796875 -3.890625 C 2.628906 -4.066406 2.398438 -4.15625 2.109375 -4.15625 C 1.828125 -4.15625 1.597656 -4.066406 1.421875 -3.890625 C 1.253906 -3.710938 1.171875 -3.472656 1.171875 -3.171875 L 1.171875 -1.578125 C 1.171875 -1.285156 1.253906 -1.050781 1.421875 -0.875 C 1.597656 -0.695312 1.828125 -0.609375 2.109375 -0.609375 Z M 2.109375 -0.609375 "/></g></g></g><g fill="#ffffff" fill-opacity="1"><g transform="translate(79.390654, 152.30145)"><g><path d="M 2.109375 0.0625 C 1.773438 0.0625 1.472656 -0.00390625 1.203125 -0.140625 C 0.941406 -0.273438 0.738281 -0.46875 0.59375 -0.71875 C 0.445312 -0.976562 0.375 -1.273438 0.375 -1.609375 L 0.375 -3.171875 C 0.375 -3.492188 0.445312 -3.78125 0.59375 -4.03125 C 0.738281 -4.289062 0.941406 -4.488281 1.203125 -4.625 C 1.472656 -4.757812 1.773438 -4.828125 2.109375 -4.828125 C 2.460938 -4.828125 2.769531 -4.757812 3.03125 -4.625 C 3.289062 -4.488281 3.492188 -4.289062 3.640625 -4.03125 C 3.785156 -3.78125 3.859375 -3.492188 3.859375 -3.171875 L 3.859375 -1.609375 C 3.859375 -1.273438 3.785156 -0.976562 3.640625 -0.71875 C 3.492188 -0.46875 3.289062 -0.273438 3.03125 -0.140625 C 2.769531 -0.00390625 2.460938 0.0625 2.109375 0.0625 Z M 2.109375 -0.609375 C 2.398438 -0.609375 2.628906 -0.695312 2.796875 -0.875 C 2.972656 -1.050781 3.0625 -1.285156 3.0625 -1.578125 L 3.0625 -3.171875 C 3.0625 -3.472656 2.972656 -3.710938 2.796875 -3.890625 C 2.628906 -4.066406 2.398438 -4.15625 2.109375 -4.15625 C 1.828125 -4.15625 1.597656 -4.066406 1.421875 -3.890625 C 1.253906 -3.710938 1.171875 -3.472656 1.171875 -3.171875 L 1.171875 -1.578125 C 1.171875 -1.285156 1.253906 -1.050781 1.421875 -0.875 C 1.597656 -0.695312 1.828125 -0.609375 2.109375 -0.609375 Z M 2.109375 -0.609375 "/></g></g></g><g fill="#ffffff" fill-opacity="1"><g transform="translate(85.061517, 152.30145)"><g><path d="M 0.609375 0 C 0.535156 0 0.5 -0.0351562 0.5 -0.109375 L 0.5 -4.671875 C 0.5 -4.742188 0.535156 -4.78125 0.609375 -4.78125 L 1.1875 -4.78125 C 1.257812 -4.78125 1.296875 -4.742188 1.296875 -4.671875 L 1.296875 -0.71875 C 1.296875 -0.695312 1.304688 -0.6875 1.328125 -0.6875 L 3.578125 -0.6875 C 3.648438 -0.6875 3.6875 -0.648438 3.6875 -0.578125 L 3.6875 -0.109375 C 3.6875 -0.0351562 3.648438 0 3.578125 0 Z M 0.609375 0 "/></g></g></g><g fill="#ffffff" fill-opacity="1"><g transform="translate(90.390858, 152.30145)"><g/></g></g><g fill="#ffffff" fill-opacity="1"><g transform="translate(93.186065, 152.30145)"><g><path d="M 3.609375 -4.78125 C 3.679688 -4.78125 3.71875 -4.742188 3.71875 -4.671875 L 3.71875 -4.203125 C 3.71875 -4.128906 3.679688 -4.09375 3.609375 -4.09375 L 2.390625 -4.09375 C 2.359375 -4.09375 2.34375 -4.078125 2.34375 -4.046875 L 2.34375 -0.109375 C 2.34375 -0.0351562 2.304688 0 2.234375 0 L 1.671875 0 C 1.597656 0 1.5625 -0.0351562 1.5625 -0.109375 L 1.5625 -4.046875 C 1.5625 -4.078125 1.546875 -4.09375 1.515625 -4.09375 L 0.34375 -4.09375 C 0.269531 -4.09375 0.234375 -4.128906 0.234375 -4.203125 L 0.234375 -4.671875 C 0.234375 -4.742188 0.269531 -4.78125 0.34375 -4.78125 Z M 3.609375 -4.78125 "/></g></g></g><g fill="#ffffff" fill-opacity="1"><g transform="translate(98.570049, 152.30145)"><g><path d="M 2.109375 0.0625 C 1.773438 0.0625 1.472656 -0.00390625 1.203125 -0.140625 C 0.941406 -0.273438 0.738281 -0.46875 0.59375 -0.71875 C 0.445312 -0.976562 0.375 -1.273438 0.375 -1.609375 L 0.375 -3.171875 C 0.375 -3.492188 0.445312 -3.78125 0.59375 -4.03125 C 0.738281 -4.289062 0.941406 -4.488281 1.203125 -4.625 C 1.472656 -4.757812 1.773438 -4.828125 2.109375 -4.828125 C 2.460938 -4.828125 2.769531 -4.757812 3.03125 -4.625 C 3.289062 -4.488281 3.492188 -4.289062 3.640625 -4.03125 C 3.785156 -3.78125 3.859375 -3.492188 3.859375 -3.171875 L 3.859375 -1.609375 C 3.859375 -1.273438 3.785156 -0.976562 3.640625 -0.71875 C 3.492188 -0.46875 3.289062 -0.273438 3.03125 -0.140625 C 2.769531 -0.00390625 2.460938 0.0625 2.109375 0.0625 Z M 2.109375 -0.609375 C 2.398438 -0.609375 2.628906 -0.695312 2.796875 -0.875 C 2.972656 -1.050781 3.0625 -1.285156 3.0625 -1.578125 L 3.0625 -3.171875 C 3.0625 -3.472656 2.972656 -3.710938 2.796875 -3.890625 C 2.628906 -4.066406 2.398438 -4.15625 2.109375 -4.15625 C 1.828125 -4.15625 1.597656 -4.066406 1.421875 -3.890625 C 1.253906 -3.710938 1.171875 -3.472656 1.171875 -3.171875 L 1.171875 -1.578125 C 1.171875 -1.285156 1.253906 -1.050781 1.421875 -0.875 C 1.597656 -0.695312 1.828125 -0.609375 2.109375 -0.609375 Z M 2.109375 -0.609375 "/></g></g></g><g fill="#ffffff" fill-opacity="1"><g transform="translate(104.240914, 152.30145)"><g><path d="M 2.109375 0.0625 C 1.773438 0.0625 1.472656 -0.00390625 1.203125 -0.140625 C 0.941406 -0.273438 0.738281 -0.46875 0.59375 -0.71875 C 0.445312 -0.976562 0.375 -1.273438 0.375 -1.609375 L 0.375 -3.171875 C 0.375 -3.492188 0.445312 -3.78125 0.59375 -4.03125 C 0.738281 -4.289062 0.941406 -4.488281 1.203125 -4.625 C 1.472656 -4.757812 1.773438 -4.828125 2.109375 -4.828125 C 2.460938 -4.828125 2.769531 -4.757812 3.03125 -4.625 C 3.289062 -4.488281 3.492188 -4.289062 3.640625 -4.03125 C 3.785156 -3.78125 3.859375 -3.492188 3.859375 -3.171875 L 3.859375 -1.609375 C 3.859375 -1.273438 3.785156 -0.976562 3.640625 -0.71875 C 3.492188 -0.46875 3.289062 -0.273438 3.03125 -0.140625 C 2.769531 -0.00390625 2.460938 0.0625 2.109375 0.0625 Z M 2.109375 -0.609375 C 2.398438 -0.609375 2.628906 -0.695312 2.796875 -0.875 C 2.972656 -1.050781 3.0625 -1.285156 3.0625 -1.578125 L 3.0625 -3.171875 C 3.0625 -3.472656 2.972656 -3.710938 2.796875 -3.890625 C 2.628906 -4.066406 2.398438 -4.15625 2.109375 -4.15625 C 1.828125 -4.15625 1.597656 -4.066406 1.421875 -3.890625 C 1.253906 -3.710938 1.171875 -3.472656 1.171875 -3.171875 L 1.171875 -1.578125 C 1.171875 -1.285156 1.253906 -1.050781 1.421875 -0.875 C 1.597656 -0.695312 1.828125 -0.609375 2.109375 -0.609375 Z M 2.109375 -0.609375 "/></g></g></g><g fill="#ffffff" fill-opacity="1"><g transform="translate(109.911779, 152.30145)"><g><path d="M 0.609375 0 C 0.535156 0 0.5 -0.0351562 0.5 -0.109375 L 0.5 -4.671875 C 0.5 -4.742188 0.535156 -4.78125 0.609375 -4.78125 L 1.1875 -4.78125 C 1.257812 -4.78125 1.296875 -4.742188 1.296875 -4.671875 L 1.296875 -0.71875 C 1.296875 -0.695312 1.304688 -0.6875 1.328125 -0.6875 L 3.578125 -0.6875 C 3.648438 -0.6875 3.6875 -0.648438 3.6875 -0.578125 L 3.6875 -0.109375 C 3.6875 -0.0351562 3.648438 0 3.578125 0 Z M 0.609375 0 "/></g></g></g><g fill="#ffffff" fill-opacity="1"><g transform="translate(115.241119, 152.30145)"><g><path d="M 2.03125 0.046875 C 1.6875 0.046875 1.382812 -0.00390625 1.125 -0.109375 C 0.863281 -0.222656 0.660156 -0.382812 0.515625 -0.59375 C 0.378906 -0.800781 0.3125 -1.039062 0.3125 -1.3125 L 0.3125 -1.46875 C 0.3125 -1.539062 0.347656 -1.578125 0.421875 -1.578125 L 0.96875 -1.578125 C 1.039062 -1.578125 1.078125 -1.539062 1.078125 -1.46875 L 1.078125 -1.359375 C 1.078125 -1.148438 1.171875 -0.972656 1.359375 -0.828125 C 1.546875 -0.691406 1.789062 -0.625 2.09375 -0.625 C 2.375 -0.625 2.582031 -0.679688 2.71875 -0.796875 C 2.863281 -0.921875 2.9375 -1.078125 2.9375 -1.265625 C 2.9375 -1.390625 2.894531 -1.492188 2.8125 -1.578125 C 2.738281 -1.671875 2.628906 -1.753906 2.484375 -1.828125 C 2.347656 -1.898438 2.132812 -1.992188 1.84375 -2.109375 C 1.519531 -2.222656 1.257812 -2.332031 1.0625 -2.4375 C 0.863281 -2.539062 0.695312 -2.679688 0.5625 -2.859375 C 0.425781 -3.046875 0.359375 -3.269531 0.359375 -3.53125 C 0.359375 -3.9375 0.503906 -4.253906 0.796875 -4.484375 C 1.085938 -4.710938 1.472656 -4.828125 1.953125 -4.828125 C 2.296875 -4.828125 2.597656 -4.769531 2.859375 -4.65625 C 3.117188 -4.539062 3.320312 -4.375 3.46875 -4.15625 C 3.613281 -3.945312 3.6875 -3.703125 3.6875 -3.421875 L 3.6875 -3.34375 C 3.6875 -3.269531 3.648438 -3.234375 3.578125 -3.234375 L 3.03125 -3.234375 C 3 -3.234375 2.972656 -3.238281 2.953125 -3.25 C 2.929688 -3.269531 2.921875 -3.289062 2.921875 -3.3125 L 2.921875 -3.390625 C 2.921875 -3.597656 2.832031 -3.773438 2.65625 -3.921875 C 2.476562 -4.078125 2.234375 -4.15625 1.921875 -4.15625 C 1.671875 -4.15625 1.476562 -4.101562 1.34375 -4 C 1.207031 -3.894531 1.140625 -3.742188 1.140625 -3.546875 C 1.140625 -3.410156 1.175781 -3.300781 1.25 -3.21875 C 1.320312 -3.132812 1.425781 -3.054688 1.5625 -2.984375 C 1.707031 -2.910156 1.9375 -2.816406 2.25 -2.703125 C 2.570312 -2.585938 2.828125 -2.476562 3.015625 -2.375 C 3.210938 -2.269531 3.378906 -2.128906 3.515625 -1.953125 C 3.660156 -1.773438 3.734375 -1.550781 3.734375 -1.28125 C 3.734375 -1.019531 3.660156 -0.785156 3.515625 -0.578125 C 3.378906 -0.378906 3.179688 -0.222656 2.921875 -0.109375 C 2.671875 -0.00390625 2.375 0.046875 2.03125 0.046875 Z M 2.03125 0.046875 "/></g></g></g></svg>